<?xml version="1.0" encoding="utf-8"?>
<!-- Svg Vector Icons : http://www.onlinewebfonts.com/icon -->
<!DOCTYPE svg PUBLIC "-//W3C//DTD SVG 1.1//EN" "http://www.w3.org/Graphics/SVG/1.1/DTD/svg11.dtd">
<svg version="1.1" xmlns="http://www.w3.org/2000/svg" xmlns:xlink="http://www.w3.org/1999/xlink" x="0px" y="0px" viewBox="0 0 256 256" enable-background="new 0 0 256 256" xml:space="preserve">
<metadata> Svg Vector Icons : http://www.onlinewebfonts.com/icon </metadata>
<g><g><g><path fill="#000000" d="M41.8,95.9v57.5l-15.9,31.8C17.1,202.8,10,217.2,10,217.4c0,0.1,53.1,0.2,118,0.2c64.9,0,118-0.1,118-0.2c0-0.1-7.1-14.6-15.9-32.1l-15.9-31.8V95.9V38.4H128H41.8V95.9z M140.5,64.2c-0.1,0.5-3.8,15.7-8.2,33.8l-8,33h-4.6c-4.6,0-4.6,0-4.4-1.1c0.2-0.6,3.7-15.5,7.9-33.1c4.2-17.6,7.7-32.4,7.8-32.7c0.1-0.4,1.6-0.6,4.9-0.6C140.3,63.4,140.8,63.5,140.5,64.2z M110.5,85.4c-0.2,0.2-6.9,2.8-14.8,5.9c-7.9,3-14.7,5.6-15.1,5.8c-0.4,0.2,5.6,2.8,14.8,6.5l15.5,6.1v6.2c0,3.5-0.1,6.3-0.2,6.3c-0.2,0-22.7-9.7-39.8-17.2l-4.6-2v-5.5V92l22.2-9.6l22.1-9.5l0.1,6.1C110.8,82.3,110.7,85.3,110.5,85.4z M167.7,82.6l21.8,9.4l0.1,5.4l0.1,5.4l-1.4,0.6c-3.5,1.6-42.8,18.7-43,18.7c-0.1,0-0.2-2.8-0.2-6.3v-6.2l13.7-5.3c7.5-2.9,14.5-5.7,15.5-6.1l1.7-0.8l-15.3-5.9l-15.3-6l-0.1-6.2c0-3.4,0-6.2,0.2-6.2C145.7,73.2,155.7,77.4,167.7,82.6z M220,182.6c7.3,14.7,13.3,26.8,13.3,26.9c0,0.1-47.3,0.2-105.3,0.2c-57.9,0-105.3-0.1-105.3-0.2c0-0.1,6-12.2,13.3-26.9l13.4-26.7H128h78.6L220,182.6z"/><path fill="#000000" d="M56,184.8v3.9h72.7h72.7l0.2-1.5c0.1-0.8,0.1-2.6,0-3.9l-0.2-2.4h-72.6H56V184.8z"/></g></g></g>
</svg>