<?xml version="1.0" encoding="utf-8"?>
<!-- Svg Vector Icons : http://www.onlinewebfonts.com/icon -->
<!DOCTYPE svg PUBLIC "-//W3C//DTD SVG 1.1//EN" "http://www.w3.org/Graphics/SVG/1.1/DTD/svg11.dtd">
<svg version="1.1" xmlns="http://www.w3.org/2000/svg" xmlns:xlink="http://www.w3.org/1999/xlink" x="0px" y="0px" viewBox="0 0 256 256" enable-background="new 0 0 256 256" xml:space="preserve">
<metadata> Svg Vector Icons : http://www.onlinewebfonts.com/icon </metadata>
<g><g><g><path fill="#000000" d="M116.7,10.3C88.9,13.2,63.9,25,44.4,44.5c-18.7,18.7-30,41.7-33.9,69c-0.8,5.5-0.8,23.6,0,29.1c3.9,27.4,15.1,50.3,33.9,69c18.8,18.7,41.6,29.9,69,33.9c5.4,0.8,23.6,0.8,29.1,0c19-2.7,35.2-8.7,50.6-18.8c12.6-8.2,25.3-21,33.5-33.5c10.1-15.4,16-31.5,18.8-50.6c0.8-5.5,0.8-23.6,0-29.1c-3.9-27.4-15.1-50.3-33.9-69c-18.3-18.3-40.6-29.5-66.9-33.5C138.8,10.1,122.6,9.6,116.7,10.3z M132.9,44.7c5.4,1.4,9.7,5,12.3,10.3c1.4,2.9,1.5,3.4,1.5,7.9c0,4.7,0,5-1.8,8.4c-2,4.1-4.9,7-9,9c-2.4,1.2-3,1.3-7.9,1.3s-5.5-0.1-7.9-1.3c-4.1-2-7-4.9-9-9c-1.7-3.4-1.8-3.7-1.8-8.4c0-4.6,0.1-5.1,1.5-7.9C114.9,46.5,123.8,42.3,132.9,44.7z M115.2,100.5c3.5,7.6,7.6,16.5,9.1,19.7l2.7,5.9h-18.9H89.2v-10.8c0-12.1,0.4-16,2-19.2c2.2-4.3,6.9-7.7,12.6-9.1C108.8,85.9,108,85,115.2,100.5z M152,87.1c8.1,1.9,13.2,6.9,14.4,14.1c0.2,1.6,0.5,7.9,0.5,13.9v11h-18.9h-19l0.7-1.3c0.3-0.7,4.1-8.8,8.4-18.1c9.5-20.7,9.3-20.3,10.3-20.3C148.6,86.5,150.4,86.8,152,87.1z M140.1,88.2c-1.1,2.9-11.9,26.4-12.1,26.4s-11-23.6-12.1-26.4c-0.3-0.8,0.2-0.8,12.1-0.8S140.4,87.4,140.1,88.2z M105.4,164.1c2.9,1.1,4.5,2.6,5.6,5.4c1.9,5,1.2,20.7-1.1,24.3c-0.6,0.8-2.1,2-3.3,2.7c-2.2,1.1-2.6,1.2-13.3,1.3l-11,0.2v-17.4V163l10.8,0.2C100.3,163.4,104.3,163.6,105.4,164.1z M139.9,166l0.1,2.7h-8.6h-8.5v4.4v4.4l8,0.1l7.9,0.1l0.1,2.4l0.1,2.4H131h-8.1v4.8v4.9h8.5h8.5v2.8v2.8l-11.9-0.1l-11.9-0.1l-0.1-16.6c0-9.1,0-16.9,0.1-17.2c0.1-0.5,2.8-0.6,11.9-0.5l11.7,0.1L139.9,166z M151.9,173.5c1.8,5.6,3.8,11.8,4.4,13.9c0.6,2,1.1,3.9,1.3,4.1c0.2,0.2,0.8-1.2,1.3-3.2c0.6-2,2.6-8.5,4.6-14.4l3.5-10.7h3.4c3.3,0,3.4,0,3.1,1c-0.1,0.6-2.6,8.3-5.5,17.2l-5.3,16.2l-5,0.1l-5,0.1l-5.4-17c-3-9.4-5.4-17.2-5.4-17.4s1.5-0.3,3.3-0.2l3.3,0.1L151.9,173.5z"/><path fill="#000000" d="M124.1,52c-5.8,2.1-8.9,8.5-7.2,14.7c0.6,2.2,3.8,5.7,6.2,6.8c2.5,1.2,7.2,1.2,9.7,0c2.4-1.1,5.4-4.5,6.1-6.9c1-3.1,0.7-6.2-0.7-8.9C135.5,52.5,129.6,50.1,124.1,52z"/><path fill="#000000" d="M101.9,95.6c-2,1.1-3,2-4.1,4.1c-0.9,1.7-1,2.8-1.2,10.5l-0.2,8.7h9.5h9.5l-3.3-7.1c-1.8-3.8-4.2-9.2-5.5-11.9c-1.2-2.7-2.5-4.9-2.8-4.9C103.6,94.9,102.7,95.1,101.9,95.6z"/><path fill="#000000" d="M150.9,96.2c-0.4,0.8-2.8,6.2-5.5,12l-4.8,10.5h9.5h9.5l-0.2-8.7c-0.2-9-0.4-10.2-2.6-12.7c-0.8-0.9-3.8-2.6-4.6-2.6C151.8,94.8,151.3,95.5,150.9,96.2z"/><path fill="#000000" d="M88.7,180.5v11.8l6.4-0.2c5.7-0.1,6.6-0.2,7.8-1.1c2-1.5,2.5-4,2.4-11.7c-0.3-10.3-0.6-10.6-10.9-10.6h-5.7V180.5L88.7,180.5z"/></g></g></g>
</svg>